<?xml version="1.0" encoding="UTF-8" standalone="no" ?>
<!DOCTYPE svg PUBLIC "-//W3C//DTD SVG 1.1//EN" "http://www.w3.org/Graphics/SVG/1.1/DTD/svg11.dtd">
<svg xmlns="http://www.w3.org/2000/svg" xmlns:xlink="http://www.w3.org/1999/xlink" version="1.1" width="1080" height="1080" viewBox="0 0 1080 1080" xml:space="preserve">
<desc>Created with Fabric.js 5.2.4</desc>
<defs>
</defs>
<rect x="0" y="0" width="100%" height="100%" fill="transparent"></rect>
<g transform="matrix(1 0 0 1 540 540)" id="c9aeccec-1b0f-4398-9361-d61bbec2d4a2"  >
</g>
<g transform="matrix(1 0 0 1 540 540)" id="95a2413c-5f09-4bcc-bfa3-6cccaef0b7f1"  >
<rect style="stroke: none; stroke-width: 1; stroke-dasharray: none; stroke-linecap: butt; stroke-dashoffset: 0; stroke-linejoin: miter; stroke-miterlimit: 4; fill: rgb(255,255,255); fill-rule: nonzero; opacity: 1; visibility: hidden;" vector-effect="non-scaling-stroke"  x="-540" y="-540" rx="0" ry="0" width="1080" height="1080" />
</g>
<g transform="matrix(1 0 0 1 540 540)"  >
<path style="stroke: rgb(0,0,0); stroke-width: 0; stroke-dasharray: none; stroke-linecap: butt; stroke-dashoffset: 0; stroke-linejoin: miter; stroke-miterlimit: 4; fill: rgb(243,243,243); fill-rule: nonzero; opacity: 1;" vector-effect="non-scaling-stroke"  transform=" translate(-256, -254.6)" d="M 256 0 C 260.6 0 265.2 1 269.4 2.9 L 457.7 82.8 C 479.7 92.1 496.09999999999997 113.8 496 140 C 495.5 239.2 454.7 420.7 282.4 503.2 C 265.7 511.2 246.29999999999998 511.2 229.59999999999997 503.2 C 57.3 420.7 16.5 239.2 16 140 C 15.9 113.8 32.3 92.1 54.3 82.8 L 242.7 2.9 C 246.8 1 251.4 0 256 0 z" stroke-linecap="round" />
</g>
<g transform="matrix(2.09 0 0 2.09 540.14 520.77)"  >
<path style="stroke: rgb(0,0,0); stroke-width: 0; stroke-dasharray: none; stroke-linecap: butt; stroke-dashoffset: 0; stroke-linejoin: miter; stroke-miterlimit: 4; fill: rgb(0,0,0); fill-rule: nonzero; opacity: 1;" vector-effect="non-scaling-stroke"  transform=" translate(-50, -50)" d="M 17.54 46.118 L 23.487 46.118 L 23.487 39.951 C 23.487 38.961 23.487 38.023 23.596999999999998 37.088 L 23.651999999999997 36.923 L 23.651999999999997 36.813 L 23.706999999999997 36.536 L 23.706999999999997 36.206 L 23.761999999999997 35.931000000000004 L 23.816999999999997 35.656000000000006 L 23.816999999999997 35.601000000000006 L 23.871999999999996 35.32600000000001 L 23.871999999999996 35.27100000000001 L 23.926999999999996 35.05100000000001 L 23.926999999999996 34.94100000000001 L 24.093999999999998 34.27900000000001 L 24.093999999999998 34.16900000000001 L 24.147 33.94900000000001 L 24.147 33.89400000000001 L 24.203999999999997 33.674000000000014 L 24.203999999999997 33.619000000000014 L 24.313999999999997 33.344000000000015 L 24.368999999999996 33.01400000000002 L 24.478999999999996 32.73900000000002 L 24.478999999999996 32.682000000000016 L 24.533999999999995 32.46200000000002 L 24.533999999999995 32.40700000000002 L 24.643999999999995 32.18700000000002 L 24.643999999999995 32.07700000000002 L 24.698999999999995 31.91200000000002 L 24.753999999999994 31.74700000000002 L 24.808999999999994 31.63700000000002 L 24.863999999999994 31.472000000000023 L 24.863999999999994 31.362000000000023 L 24.973999999999993 31.142000000000024 L 25.193999999999992 30.535000000000025 L 25.30399999999999 30.260000000000026 L 25.41399999999999 29.985000000000028 L 25.41399999999999 29.930000000000028 L 25.68899999999999 29.325000000000028 L 25.74399999999999 29.21500000000003 L 25.79899999999999 29.05000000000003 C 25.963999999999988 28.77500000000003 26.073999999999987 28.44300000000003 26.24099999999999 28.168000000000028 L 26.35099999999999 27.89300000000003 C 27.61599999999999 25.41600000000003 29.267999999999986 23.15800000000003 31.25099999999999 21.17600000000003 C 34.99599999999999 17.43100000000003 39.89599999999999 14.78900000000003 45.29299999999999 13.85200000000003 L 45.62299999999999 13.79700000000003 L 45.95299999999999 13.742000000000031 L 46.28299999999999 13.687000000000031 L 46.612999999999985 13.632000000000032 L 46.944999999999986 13.577000000000032 L 47.274999999999984 13.522000000000032 L 47.60499999999998 13.522000000000032 L 47.93499999999998 13.467000000000033 L 48.649999999999984 13.467000000000033 L 48.981999999999985 13.412000000000033 L 51.01999999999998 13.412000000000033 L 51.34999999999998 13.467000000000033 L 52.01099999999998 13.467000000000033 L 52.34099999999998 13.522000000000032 L 52.67099999999998 13.522000000000032 L 53.000999999999976 13.577000000000032 L 53.330999999999975 13.632000000000032 L 53.66099999999997 13.687000000000031 L 53.99099999999997 13.742000000000031 L 54.32099999999997 13.79700000000003 L 54.65099999999997 13.85200000000003 C 60.102999999999966 14.78900000000003 64.94799999999996 17.43200000000003 68.69199999999996 21.17600000000003 L 68.74999999999997 21.17600000000003 C 69.95999999999997 22.38600000000003 71.00699999999998 23.70800000000003 71.99699999999997 25.14000000000003 L 71.99699999999997 25.19500000000003 C 72.43699999999997 25.80000000000003 72.87699999999997 26.517000000000028 73.26499999999997 27.177000000000028 L 73.37399999999997 27.452000000000027 L 73.59499999999997 27.892000000000028 L 73.87099999999997 28.38700000000003 L 73.87099999999997 28.44200000000003 L 73.92499999999997 28.49700000000003 L 74.14499999999997 28.994000000000028 L 74.14499999999997 29.049000000000028 L 74.25499999999997 29.214000000000027 L 74.31199999999997 29.324000000000026 C 74.42199999999997 29.654000000000025 74.58499999999997 29.929000000000027 74.69499999999996 30.259000000000025 L 74.80499999999996 30.534000000000024 L 74.91499999999996 30.866000000000025 L 74.97199999999997 31.086000000000023 L 75.02499999999996 31.141000000000023 L 75.08299999999997 31.361000000000022 L 75.24599999999997 31.746000000000024 L 75.24599999999997 31.911000000000023 L 75.41299999999997 32.40600000000002 L 75.46599999999997 32.46100000000002 L 75.52299999999997 32.68100000000002 L 75.52299999999997 32.73800000000002 L 75.63299999999997 33.23300000000002 L 75.74299999999997 33.56300000000002 L 75.74299999999997 33.673000000000016 L 75.79999999999997 33.893000000000015 L 75.85299999999997 34.058000000000014 L 75.91099999999997 34.33300000000001 L 76.01999999999997 34.77500000000001 L 76.01999999999997 34.94000000000001 L 76.07399999999997 35.05000000000001 L 76.13099999999997 35.27000000000001 L 76.13099999999997 35.49000000000001 L 76.24099999999997 35.93000000000001 L 76.24099999999997 36.260000000000005 L 76.29399999999997 36.535000000000004 L 76.29399999999997 36.59 L 76.35099999999997 36.812000000000005 C 76.35099999999997 37.087 76.40499999999997 37.362 76.40499999999997 37.58200000000001 L 76.40499999999997 37.69200000000001 C 76.51399999999997 38.46300000000001 76.51399999999997 39.17900000000001 76.51399999999997 39.95000000000001 L 76.51399999999997 46.11700000000001 L 82.46299999999997 46.11700000000001 L 82.46299999999997 86.58800000000001 L 17.54 86.58800000000001 L 17.54 46.118 z M 34.113 46.118 L 65.832 46.118 L 65.832 39.951 C 65.832 39.18 65.77499999999999 38.409 65.66499999999999 37.638 L 65.612 37.418 L 65.612 37.253 L 65.55399999999999 37.143 L 65.55399999999999 36.978 L 65.50099999999999 36.923 L 65.44399999999999 36.591 L 65.44399999999999 36.426 L 65.38999999999999 36.371 L 65.38999999999999 36.206 L 65.33299999999998 36.096000000000004 L 65.27999999999999 35.876000000000005 L 65.22199999999998 35.656000000000006 L 65.22199999999998 35.601000000000006 L 65.16499999999998 35.43600000000001 L 65.11199999999998 35.32600000000001 L 65.11199999999998 35.21600000000001 L 65.00199999999998 34.88600000000001 L 64.94499999999998 34.71900000000001 L 64.89099999999998 34.71900000000001 L 64.89099999999998 34.55400000000001 L 64.78199999999998 34.33400000000001 L 64.78199999999998 34.27900000000001 L 64.72399999999998 34.22400000000001 L 64.67099999999998 34.05900000000001 L 64.61399999999998 33.94900000000001 L 64.50399999999998 33.72900000000001 L 64.50399999999998 33.619000000000014 L 64.45099999999998 33.564000000000014 L 64.39299999999997 33.454000000000015 L 64.33999999999997 33.289000000000016 L 64.33999999999997 33.234000000000016 C 64.17299999999997 32.95900000000002 64.06299999999997 32.682000000000016 63.89999999999998 32.40700000000002 C 63.67999999999998 32.07700000000002 63.51299999999998 31.747000000000018 63.293999999999976 31.41700000000002 L 63.239999999999974 31.30700000000002 L 63.126999999999974 31.14200000000002 L 63.07299999999997 31.08700000000002 L 63.07299999999997 31.03200000000002 L 62.90599999999997 30.812000000000022 C 62.52299999999997 30.260000000000023 62.13599999999997 29.82000000000002 61.69599999999997 29.325000000000024 C 61.53299999999997 29.105000000000025 61.36599999999997 28.940000000000023 61.14599999999997 28.775000000000023 L 61.14599999999997 28.720000000000024 C 61.03599999999997 28.610000000000024 60.86899999999997 28.498000000000022 60.75899999999997 28.333000000000023 L 60.64899999999997 28.223000000000024 L 60.595999999999975 28.223000000000024 L 60.485999999999976 28.113000000000024 C 58.88799999999998 26.683000000000025 56.961999999999975 25.581000000000024 54.866999999999976 24.865000000000023 L 54.70399999999998 24.810000000000024 L 54.48399999999998 24.755000000000024 L 54.31699999999998 24.700000000000024 L 54.09599999999998 24.645000000000024 L 53.932999999999986 24.590000000000025 L 53.71299999999999 24.590000000000025 L 53.545999999999985 24.535000000000025 L 53.38299999999999 24.480000000000025 L 53.16299999999999 24.423000000000027 L 52.99599999999999 24.368000000000027 L 52.78 24.368000000000027 L 52.614000000000004 24.313000000000027 L 52.39300000000001 24.313000000000027 L 52.17300000000001 24.258000000000028 L 52.01000000000001 24.258000000000028 L 51.789000000000016 24.203000000000028 L 51.62400000000002 24.203000000000028 L 51.40300000000002 24.148000000000028 L 50.57600000000002 24.148000000000028 L 50.41100000000002 24.09300000000003 L 49.58600000000002 24.09300000000003 L 49.36600000000002 24.148000000000028 L 48.59400000000002 24.148000000000028 L 48.374000000000024 24.203000000000028 L 48.154000000000025 24.203000000000028 L 47.989000000000026 24.258000000000028 L 47.76900000000003 24.258000000000028 L 47.60400000000003 24.313000000000027 L 47.38400000000003 24.313000000000027 L 47.16400000000003 24.368000000000027 L 47 24.368000000000027 L 46.778 24.423000000000027 L 46.613 24.480000000000025 L 46.448 24.535000000000025 L 46.228 24.590000000000025 L 46.063 24.590000000000025 L 45.843 24.645000000000024 L 45.678000000000004 24.700000000000024 L 45.458000000000006 24.755000000000024 L 45.293000000000006 24.810000000000024 L 45.12800000000001 24.865000000000023 L 44.90800000000001 24.920000000000023 L 44.74100000000001 25.030000000000022 L 44.57600000000001 25.085000000000022 C 42.92600000000001 25.690000000000023 41.43800000000001 26.51700000000002 40.06100000000001 27.617000000000022 L 39.95100000000001 27.72700000000002 L 39.78600000000001 27.83700000000002 L 39.62100000000001 27.94700000000002 L 39.62100000000001 28.00200000000002 L 39.51100000000001 28.11200000000002 L 39.34600000000001 28.22200000000002 L 39.23600000000001 28.33200000000002 L 38.796000000000014 28.71900000000002 L 38.796000000000014 28.77400000000002 C 38.189000000000014 29.37900000000002 37.58400000000001 30.09400000000002 37.088000000000015 30.81200000000002 L 36.868000000000016 31.087000000000018 L 36.81300000000002 31.197000000000017 L 36.75800000000002 31.252000000000017 L 36.70300000000002 31.307000000000016 L 36.64800000000002 31.417000000000016 L 36.371000000000016 31.912000000000017 L 36.31600000000002 32.02200000000002 L 36.26100000000002 32.07700000000002 L 36.20600000000002 32.13200000000002 L 36.15100000000002 32.24200000000002 L 36.15100000000002 32.29700000000002 L 36.09600000000002 32.40700000000002 L 35.98600000000002 32.57200000000002 L 35.71100000000002 33.12400000000002 L 35.54600000000002 33.509000000000015 L 35.49100000000002 33.564000000000014 L 35.49100000000002 33.619000000000014 L 35.43600000000002 33.674000000000014 L 35.32600000000002 33.94900000000001 L 35.32600000000002 34.00400000000001 L 35.21600000000002 34.27900000000001 L 35.21600000000002 34.33400000000001 L 35.16100000000002 34.44400000000001 L 35.10600000000002 34.49900000000001 L 35.10600000000002 34.55400000000001 L 35.05100000000002 34.71900000000001 L 34.99600000000002 34.88600000000001 L 34.941000000000024 35.05100000000001 L 34.886000000000024 35.16100000000001 L 34.886000000000024 35.27100000000001 L 34.831000000000024 35.32600000000001 L 34.831000000000024 35.43600000000001 L 34.776000000000025 35.49100000000001 L 34.776000000000025 35.656000000000006 L 34.721000000000025 35.821000000000005 L 34.666000000000025 35.986000000000004 L 34.611000000000026 36.096000000000004 L 34.501000000000026 36.591 L 34.501000000000026 36.756 L 34.444000000000024 36.923 L 34.444000000000024 36.978 C 34.39100000000003 37.198 34.334000000000024 37.473 34.334000000000024 37.693000000000005 C 34.224000000000025 38.464000000000006 34.169000000000025 39.18000000000001 34.169000000000025 39.95100000000001 L 34.114000000000026 39.95100000000001 L 34.114000000000026 46.118 z M 47.385 64.618 L 47.22 66.216 L 47.165 67.37299999999999 C 46.945 70.07 46.668 73.20799999999998 46.338 77.00999999999999 L 53.661 77.00999999999999 C 53.331 73.20799999999998 53.057 70.071 52.834 67.37299999999999 L 52.724000000000004 66.216 L 52.615 64.618 L 52.615 64.565 C 54.049 63.626999999999995 54.986000000000004 62.086999999999996 54.986000000000004 60.269999999999996 C 54.986000000000004 57.51499999999999 52.781000000000006 55.257999999999996 50.083000000000006 55.202 L 49.918000000000006 55.202 C 47.165000000000006 55.259 44.96300000000001 57.515 44.96300000000001 60.269999999999996 C 44.96300000000001 62.086999999999996 45.95300000000001 63.626999999999995 47.385000000000005 64.565 L 47.385000000000005 64.618 z" stroke-linecap="round" />
</g>
</svg>